<?xml version="1.0" standalone="no"?>
<!DOCTYPE svg PUBLIC "-//W3C//DTD SVG 20010904//EN"
 "http://www.w3.org/TR/2001/REC-SVG-20010904/DTD/svg10.dtd">
<svg version="1.0" xmlns="http://www.w3.org/2000/svg"
 width="192.000000pt" height="192.000000pt" viewBox="0 0 192.000000 192.000000"
 preserveAspectRatio="xMidYMid meet">
<metadata>
Created by potrace 1.11, written by Peter Selinger 2001-2013
</metadata>
<g transform="translate(0.000000,192.000000) scale(0.100000,-0.100000)"
fill="#000000" stroke="none">
<path d="M4 961 l1 -716 955 0 955 0 0 715 0 715 -956 1 -956 1 1 -716z m1684
588 c-2 -3 -28 -27 -58 -54 -30 -26 -71 -62 -91 -79 -19 -17 -60 -51 -89 -76
-60 -50 -186 -158 -270 -230 -30 -26 -75 -65 -101 -86 -25 -22 -58 -52 -74
-67 -17 -15 -37 -27 -45 -27 -8 0 -33 17 -55 38 -23 20 -81 71 -130 112 -50
41 -99 84 -110 95 -11 11 -30 28 -43 36 -12 9 -39 31 -60 50 -20 19 -64 57
-97 84 -33 28 -73 62 -90 76 -109 95 -140 123 -143 128 -1 3 326 6 728 6 402
0 729 -3 728 -6z m-1513 -116 c23 -21 68 -60 100 -88 33 -27 62 -52 65 -55 3
-3 45 -39 95 -80 49 -41 96 -82 105 -90 9 -8 33 -30 54 -47 41 -34 41 -34 1
-79 -5 -6 -38 -42 -71 -80 -63 -70 -105 -119 -204 -233 -30 -36 -66 -76 -80
-90 -14 -15 -43 -48 -64 -74 -21 -26 -41 -47 -45 -47 -3 0 -6 225 -6 500 0
275 2 500 5 500 3 0 23 -17 45 -37z m1620 -463 c0 -275 -3 -500 -6 -500 -3 0
-26 23 -50 51 -24 28 -51 60 -60 71 -9 10 -44 49 -77 86 -33 37 -73 83 -88
102 -16 19 -36 42 -44 50 -8 9 -40 45 -70 79 -30 35 -67 77 -82 93 -16 16 -28
32 -27 36 0 4 35 36 77 71 42 35 104 88 137 116 143 126 280 244 285 244 3 1
5 -224 5 -499z m-979 -87 c27 -23 60 -51 74 -63 14 -12 35 -30 47 -41 l23 -19
67 57 c38 30 73 61 78 67 6 6 27 26 49 43 l39 31 21 -23 c25 -27 51 -57 131
-150 33 -39 63 -72 66 -75 3 -3 57 -63 119 -135 62 -72 128 -147 147 -167 18
-21 30 -39 26 -39 -4 -1 -342 -2 -750 -3 -492 -1 -739 2 -735 9 6 10 109 130
147 171 11 12 41 45 67 75 25 30 56 65 68 79 12 14 43 49 68 79 50 56 64 73
125 139 36 40 38 41 56 24 9 -9 40 -36 67 -59z"/>
</g>
</svg>
